<svg xmlns="http://www.w3.org/2000/svg" xmlns:xlink="http://www.w3.org/1999/xlink" version="1.1" x="0px" y="0px" viewBox="0 0 100 100" enable-background="new 0 0 100 100" xml:space="preserve"><g><path fill="#999999" d="M91.328,87.086L68.483,64.241C73.793,57.969,77,49.861,77,41C77,21.118,60.882,5,41,5   C21.118,5,5,21.118,5,41s16.118,36,36,36c8.861,0,16.969-3.207,23.241-8.517l22.845,22.845c0.778,0.778,2.051,0.778,2.828,0   l1.414-1.414C92.106,89.136,92.106,87.864,91.328,87.086z M11,41c0-16.542,13.458-30,30-30c16.542,0,30,13.458,30,30   S57.542,71,41,71C24.458,71,11,57.542,11,41z"></path><path fill="#999999" d="M23,30c0,1.1,0.9,2,2,2h32c1.1,0,2-0.9,2-2v-2c0-1.1-0.9-2-2-2H25c-1.1,0-2,0.9-2,2V30z"></path><path fill="#999999" d="M23,42c0,1.1,0.9,2,2,2h32c1.1,0,2-0.9,2-2v-2c0-1.1-0.9-2-2-2H25c-1.1,0-2,0.9-2,2V42z"></path><path fill="#999999" d="M23,54c0,1.1,0.9,2,2,2h32c1.1,0,2-0.9,2-2v-2c0-1.1-0.9-2-2-2H25c-1.1,0-2,0.9-2,2V54z"></path></g></svg>